<svg width="25" height="21" viewBox="0 0 25 21" fill="none" xmlns="http://www.w3.org/2000/svg">
<g clip-path="url(#clip0_66_141)">
<path d="M8.86055 0.690692C6.46258 1.41859 4.39457 2.80015 2.96029 4.63246C1.526 6.46477 0.801037 8.65124 0.891883 10.8707C0.982728 13.0902 1.88459 15.2257 3.46501 16.9635C5.04543 18.7013 7.22109 19.9499 9.67243 20.5259C11.6598 20.9746 13.7419 20.9943 15.7399 20.5833C17.5499 20.2275 19.2233 19.4666 20.5962 18.375C22.0251 17.2042 23.0622 15.7147 23.5962 14.0667C24.1765 12.2746 24.2798 10.39 23.8981 8.55749H12.7381V12.6082H19.2012C19.072 13.2543 18.7952 13.8709 18.3873 14.4211C17.9795 14.9714 17.4489 15.444 16.8274 15.8107C16.0382 16.2675 15.1485 16.5749 14.2156 16.713C13.2798 16.8653 12.32 16.8653 11.3843 16.713C10.4359 16.5415 9.53874 16.199 8.74993 15.7073C7.48271 14.9224 6.5312 13.8074 6.03118 12.5212C5.52271 11.211 5.52271 9.79059 6.03118 8.48038C6.3871 7.56199 6.97549 6.72579 7.75243 6.03421C8.64154 5.22825 9.76718 4.65214 11.0058 4.3691C12.2445 4.08606 13.5484 4.10702 14.7743 4.42968C15.732 4.68691 16.6078 5.13636 17.3318 5.74218C18.0606 5.1078 18.7881 4.47179 19.5143 3.83413C19.8893 3.49124 20.2981 3.16476 20.6674 2.81366C19.5622 1.91374 18.265 1.21349 16.8499 0.753036C14.2731 -0.0656524 11.4536 -0.0876539 8.86055 0.690692Z" fill="white"/>
<path d="M8.8607 0.690696C11.4536 -0.088179 14.2731 -0.0667567 16.8501 0.751399C18.2654 1.21498 19.562 1.9186 20.6657 2.82187C20.2907 3.17296 19.8951 3.50109 19.5126 3.84234C18.7851 4.47781 18.0582 5.11109 17.332 5.74218C16.6079 5.13636 15.7321 4.68692 14.7745 4.42968C13.5489 4.10589 12.2451 4.08372 11.0061 4.3656C9.76712 4.64749 8.64079 5.22253 7.7507 6.02765C6.97377 6.71923 6.38538 7.55543 6.02945 8.47382L2.14258 5.84062C3.53384 3.42654 5.94273 1.57995 8.8607 0.690696Z" fill="#E33629"/>
<path d="M1.11116 8.44923C1.32007 7.54327 1.66691 6.66591 2.14241 5.84064L6.02928 8.4804C5.52081 9.79062 5.52081 11.211 6.02928 12.5213C4.73428 13.3963 3.43866 14.2756 2.14241 15.1594C0.952064 13.0862 0.58903 10.724 1.11116 8.44923Z" fill="#F8BD00"/>
<path d="M12.7381 8.55585H23.8981C24.2799 10.3883 24.1766 12.273 23.5963 14.0651C23.0623 15.713 22.0252 17.2025 20.5963 18.3733C19.3419 17.5169 18.0819 16.6671 16.8275 15.8107C17.4494 15.4436 17.9802 14.9705 18.3881 14.4197C18.796 13.8688 19.0726 13.2516 19.2013 12.6049H12.7381C12.7363 11.2563 12.7381 9.90608 12.7381 8.55585Z" fill="#587DBD"/>
<path d="M2.14062 15.1594C3.43688 14.2844 4.7325 13.405 6.0275 12.5212C6.52851 13.8078 7.48138 14.9229 8.75 15.7073C9.54126 16.1967 10.4404 16.5364 11.39 16.7048C12.3257 16.8571 13.2855 16.8571 14.2213 16.7048C15.1542 16.5666 16.0439 16.2593 16.8331 15.8025C18.0875 16.6589 19.3475 17.5087 20.6019 18.3651C19.2292 19.4574 17.5558 20.2189 15.7456 20.5751C13.7476 20.9861 11.6655 20.9664 9.67813 20.5176C8.10632 20.1504 6.63814 19.5031 5.36563 18.6162C4.01874 17.6805 2.91867 16.5014 2.14062 15.1594Z" fill="#319F43"/>
</g>
<defs>
<clipPath id="clip0_66_141">
<rect width="24" height="21" fill="white" transform="translate(0.5)"/>
</clipPath>
</defs>
</svg>
