<svg width="66" height="51" viewBox="0 0 66 51" fill="none" xmlns="http://www.w3.org/2000/svg">
<path d="M42.1147 34.5194L33.9098 28.2299C33.61 28 33.2556 27.9582 33.0648 27.9582C32.874 27.9582 32.5196 28 32.2198 28.2299L23.9877 34.5403C23.0609 35.2508 21.6162 36.4 16.7914 36.4L26.9044 44.1314C28.4377 45.3053 30.5161 45.9646 32.6832 45.9646C34.8503 45.9646 36.9287 45.3053 38.462 44.1314L48.6023 36.3791C46.1217 36.3791 44.0501 36.003 42.1147 34.5194ZM23.9877 15.609L32.2198 21.9194C32.4379 22.0866 32.765 22.1911 33.0648 22.1911C33.3647 22.1911 33.6918 22.0866 33.9098 21.9194L42.0602 15.6717C43.9956 14.1254 46.2035 13.7702 48.6841 13.7702L38.5438 6.01792C37.0105 4.84401 34.9321 4.18463 32.765 4.18463C30.5979 4.18463 28.5194 4.84401 26.9861 6.01792L16.8731 13.7493C21.6707 13.7493 23.1426 14.9612 23.9877 15.609Z" fill="#168743"/>
<path d="M57.5432 20.5821L51.4099 15.8597H47.9753C46.5034 15.8597 45.0314 16.3194 44.0228 17.1343L35.8452 23.403C35.082 23.988 34.0734 24.2806 33.0648 24.2806C32.0263 24.2694 31.0322 23.9556 30.2844 23.403L22.0523 17.0716C21.0165 16.2776 19.599 15.8179 18.0998 15.8179H14.0928L7.85051 20.6239C6.31911 21.7992 5.45894 23.3925 5.45894 25.0537C5.45894 26.7149 6.31911 28.3082 7.85051 29.4836L14.0928 34.2895H18.127C19.599 34.2895 21.0165 33.8298 22.0796 33.0358L30.3117 26.7254C31.0749 26.1403 32.0835 25.8478 33.0921 25.8478C34.1007 25.8478 35.1092 26.1403 35.8725 26.7254L44.0773 33.0149C45.1132 33.8089 46.5306 34.2686 48.0299 34.2686H51.4645L57.5977 29.5463C59.1368 28.3503 59.9952 26.7356 59.985 25.0555C59.9748 23.3755 59.0968 21.767 57.5432 20.5821Z" fill="#168743"/>
</svg>
