<svg width="66" height="23" viewBox="0 0 66 23" fill="none" xmlns="http://www.w3.org/2000/svg">
<g clip-path="url(#clip0_30_45)">
<path d="M24.839 0.285984L16.2744 15.9481H10.687L6.47232 3.44826C6.21679 2.68022 5.99474 2.39756 5.21716 2.07279C3.94616 1.54353 1.84724 1.04854 0.00231934 0.74062L0.126762 0.285984H9.12242C10.2672 0.285984 11.298 0.870292 11.5602 1.88201L13.7871 10.9459L19.2851 0.285984H24.839ZM32.3924 0.285984L28.0221 15.9481H22.7357L27.1066 0.285984H32.3924ZM46.7317 10.8345C46.7537 6.70162 39.2769 6.47224 39.3257 4.62569C39.3436 4.0643 40.0412 3.46667 41.5683 3.31389C42.3246 3.23886 44.4143 3.17912 46.7813 4.01513L47.7073 0.691846C46.4356 0.339263 44.7989 0 42.7631 0C37.5375 0 33.8617 2.12764 33.8324 5.1767C33.7981 7.43205 36.4579 8.68901 38.4582 9.44021C40.5185 10.2073 41.2095 10.7003 41.2 11.3859C41.1852 12.4368 39.5544 12.902 38.0384 12.9192C35.3798 12.9515 33.8387 12.3684 32.6094 11.9294L31.6499 15.3628C32.8866 15.7973 35.166 16.1747 37.5268 16.1939C43.082 16.1939 46.7154 14.0906 46.7317 10.8345ZM60.5303 15.9483H65.4178L61.1479 0.285984H56.6386C55.6216 0.285984 54.7669 0.738465 54.3876 1.43403L46.456 15.9481H52.0069L53.108 13.6085H59.8897L60.5303 15.9483ZM54.6301 10.3992L57.4134 4.51756L59.0122 10.3992H54.6301ZM39.1578 20.2594H37.0099V21.7918H39.4124V22.2525H36.2862V18.0013H39.2892V18.462H37.0099V19.8052H39.1576L39.1578 20.2594ZM40.5221 17.7745H41.2458V22.2523H40.5221V17.7745ZM43.0718 20.8269C43.0881 21.5777 43.7055 21.8866 44.4373 21.8866C44.9561 21.8866 45.2767 21.8172 45.5405 21.7291L45.6718 22.1265C45.4168 22.2147 44.9727 22.3218 44.3387 22.3218C43.1132 22.3218 42.3811 21.6975 42.3811 20.7765C42.3811 19.8559 43.0881 19.1366 44.2485 19.1366C45.5568 19.1366 45.8941 20.0073 45.8941 20.5685C45.8941 20.6819 45.8857 20.7638 45.8691 20.8271L43.0718 20.8269ZM45.1945 20.4296C45.2029 20.0829 45.0054 19.5341 44.1907 19.5341C43.4502 19.5341 43.1375 20.0449 43.0797 20.4296H45.1945ZM49.8333 22.1451C49.6443 22.2147 49.2244 22.322 48.6899 22.322C47.4886 22.322 46.7069 21.6975 46.7069 20.764C46.7069 19.8242 47.5458 19.1368 48.846 19.1368C49.2737 19.1368 49.6522 19.2185 49.8497 19.3008L49.6857 19.7233C49.5121 19.6539 49.2408 19.5779 48.846 19.5779C47.9325 19.5779 47.4393 20.1015 47.4393 20.7326C47.4393 21.4388 48.0316 21.874 48.8214 21.874C49.2329 21.874 49.5042 21.7984 49.7099 21.7291L49.8333 22.1451ZM51.8643 18.4681V19.1997H52.9007V19.622H51.8643V21.2684C51.8643 21.6472 52.0043 21.8613 52.4073 21.8613C52.6046 21.8613 52.7201 21.849 52.8271 21.8233L52.8601 22.2464C52.7201 22.284 52.498 22.3218 52.2182 22.3218C51.8806 22.3218 51.609 22.2335 51.4365 22.0887C51.239 21.9181 51.1567 21.6472 51.1567 21.2876V19.622H50.5394V19.1997H51.1567V18.632L51.8643 18.4681ZM53.9118 20.1523C53.9118 19.7926 53.9032 19.4837 53.8789 19.1997H54.5126L54.5458 19.805H54.5698C54.7513 19.3954 55.1951 19.1366 55.6804 19.1366C55.7547 19.1366 55.8125 19.1431 55.8784 19.1492V19.6729C55.8043 19.66 55.7305 19.66 55.6311 19.66C55.1215 19.66 54.7589 19.9501 54.6605 20.3667C54.6435 20.4523 54.6352 20.5388 54.6358 20.6253V22.2527H53.9118V20.1523ZM60.3284 20.7007C60.3284 21.8298 59.2997 22.3218 58.3455 22.3218C57.2756 22.3218 56.4367 21.7162 56.4367 20.7515C56.4367 19.7358 57.317 19.1368 58.4115 19.1368C59.555 19.1368 60.3284 19.7732 60.3284 20.7007ZM57.177 20.7326C57.177 21.4012 57.6707 21.906 58.3782 21.906C59.0697 21.906 59.5877 21.4073 59.5877 20.7199C59.5877 20.2028 59.2504 19.5529 58.3946 19.5529C57.5475 19.5529 57.177 20.1587 57.177 20.7326ZM61.438 20.0261C61.438 19.7047 61.4293 19.4522 61.4047 19.2001H62.0466L62.0878 19.7047H62.1041C62.3016 19.4206 62.7624 19.137 63.4206 19.137C63.9715 19.137 64.8276 19.3893 64.8276 20.4359V22.2527H64.1036V20.4929C64.1036 20.0012 63.865 19.5909 63.1822 19.5909C62.713 19.5909 62.3425 19.8496 62.2114 20.1585C62.1782 20.2281 62.1619 20.3225 62.1619 20.4173V22.2527H61.438V20.0261Z" fill="#1A1F71"/>
</g>
<defs>
<clipPath id="clip0_30_45">
<rect width="65.4209" height="22.3302" fill="white"/>
</clipPath>
</defs>
</svg>
