<svg width="30" height="30" viewBox="0 0 30 30" fill="none" xmlns="http://www.w3.org/2000/svg">
<g clip-path="url(#clip0_2_60)">
<path d="M0.636491 14.8205C0.635793 17.341 1.2944 19.8022 2.54672 21.9715L0.516724 29.3834L8.10184 27.3945C10.1998 28.5366 12.5504 29.1351 14.939 29.1352H14.9453C22.8308 29.1352 29.2497 22.7186 29.2531 14.8317C29.2546 11.01 27.7677 7.41628 25.066 4.71256C22.3649 2.00907 18.7724 0.519421 14.9447 0.517677C7.05835 0.517677 0.639863 6.93396 0.636607 14.8205" fill="url(#paint0_linear_2_60)"/>
<path d="M0.125639 14.8158C0.124825 17.4271 0.807035 19.9763 2.10401 22.2233L0.0012207 29.9008L7.85831 27.8407C10.0232 29.021 12.4606 29.6434 14.9409 29.6443H14.9473C23.1156 29.6443 29.7652 22.9969 29.7687 14.8277C29.7701 10.8686 28.2296 7.1457 25.4315 4.34512C22.633 1.54488 18.912 0.00162791 14.9473 0C6.7775 0 0.128895 6.64651 0.125639 14.8158ZM4.80483 21.8363L4.51145 21.3706C3.2782 19.4097 2.62727 17.1436 2.6282 14.8167C2.63076 8.02663 8.1568 2.50233 14.9519 2.50233C18.2426 2.50372 21.3352 3.78651 23.6612 6.11395C25.9872 8.44163 27.267 11.5358 27.2662 14.8267C27.2632 21.6169 21.737 27.1419 14.9473 27.1419H14.9424C12.7316 27.1407 10.5633 26.547 8.67238 25.425L8.22238 25.1581L3.55983 26.3806L4.80483 21.8363Z" fill="url(#paint1_linear_2_60)"/>
<path d="M11.2429 8.62186C10.9654 8.00523 10.6735 7.99279 10.4096 7.98197C10.1936 7.97267 9.9466 7.97337 9.69986 7.97337C9.45288 7.97337 9.0516 8.06628 8.71242 8.43663C8.37288 8.80732 7.41614 9.70314 7.41614 11.5251C7.41614 13.3471 8.74323 15.108 8.92823 15.3553C9.11346 15.6022 11.4902 19.4608 15.2544 20.9452C18.3828 22.1788 19.0194 21.9335 19.6983 21.8716C20.3774 21.81 21.8895 20.976 22.198 20.1113C22.5067 19.2466 22.5067 18.5055 22.4142 18.3506C22.3216 18.1963 22.0746 18.1036 21.7043 17.9185C21.3339 17.7334 19.5131 16.8373 19.1737 16.7137C18.8342 16.5902 18.5873 16.5286 18.3403 16.8994C18.0933 17.2696 17.3842 18.1036 17.168 18.3506C16.9521 18.5981 16.7359 18.629 16.3657 18.4437C15.9951 18.2579 14.8024 17.8673 13.3874 16.6058C12.2865 15.6242 11.5432 14.412 11.3272 14.0412C11.1111 13.6709 11.304 13.4702 11.4897 13.2857C11.6561 13.1198 11.8602 12.8533 12.0456 12.6371C12.2302 12.4208 12.2918 12.2665 12.4153 12.0195C12.5389 11.7723 12.4771 11.556 12.3846 11.3708C12.2918 11.1856 11.5722 9.35407 11.2429 8.62186Z" fill="white"/>
</g>
<defs>
<linearGradient id="paint0_linear_2_60" x1="1437.34" y1="2887.09" x2="1437.34" y2="0.517677" gradientUnits="userSpaceOnUse">
<stop stop-color="#1FAF38"/>
<stop offset="1" stop-color="#60D669"/>
</linearGradient>
<linearGradient id="paint1_linear_2_60" x1="1488.37" y1="2990.08" x2="1488.37" y2="0" gradientUnits="userSpaceOnUse">
<stop stop-color="#F9F9F9"/>
<stop offset="1" stop-color="white"/>
</linearGradient>
<clipPath id="clip0_2_60">
<rect width="29.77" height="30" fill="white"/>
</clipPath>
</defs>
</svg>
