<svg width="69" height="22" viewBox="0 0 69 22" fill="none" xmlns="http://www.w3.org/2000/svg">
<g clip-path="url(#clip0_4_127)">
<path d="M10.7567 4.84045C11.552 4.62084 12.385 4.50943 13.2233 4.51056C16.9857 4.51056 20.1269 6.72508 20.8464 9.66861L26.1799 8.76706C24.9558 3.76468 19.6212 3.89738e-06 13.2233 3.89738e-06C11.7985 -0.000992521 10.3829 0.189078 9.03133 0.562846L10.7567 4.84045Z" fill="#FFCC00"/>
<path d="M4.46242 19.1639L8.06913 15.7849C6.45923 14.6029 5.44337 12.878 5.44337 10.9561C5.44337 9.03578 6.45775 7.31163 8.06671 6.13111L4.45972 2.75171C1.72548 4.75896 0.000221252 7.69099 0.000221252 10.9561C0.000221252 14.2233 1.72615 17.1562 4.46242 19.1639Z" fill="#00A0DE"/>
<path d="M20.8451 12.2496C20.1225 15.1917 16.9846 17.402 13.2233 17.402C12.3602 17.402 11.5291 17.2866 10.7544 17.0709L9.02662 21.3503C10.3445 21.7148 11.7556 21.9122 13.2233 21.9122C19.615 21.9122 24.9491 18.1538 26.1777 13.156L20.8451 12.2496Z" fill="#EC3413"/>
<path d="M30.8438 15.9274C30.669 15.6929 30.4314 15.3176 30.2886 15.0416C29.444 13.4167 29.4036 11.7352 30.1169 10.1211C30.9011 8.35078 32.3992 6.99549 34.3348 6.30545C36.7682 5.43763 39.4596 5.60871 41.7919 6.75551C43.2735 7.45984 44.3238 8.54733 45.1214 10.0849L45.1953 10.2344L45.3333 10.5315C45.3555 10.5795 45.3775 10.6259 45.3992 10.6706L30.8438 15.9274ZM35.7041 8.91385C33.976 9.52929 33.0852 10.8726 33.2682 12.4477L40.5887 9.83696C39.3298 8.61088 37.6914 8.2046 35.7041 8.91385ZM44.331 16.162L41.5014 14.5943L41.4974 14.5978L41.3458 14.5131C40.9091 15.1005 40.2274 15.5763 39.3674 15.8853C37.7311 16.4749 36.2147 16.3234 35.1258 15.5319L35.0257 15.6581C35.0246 15.6567 35.0244 15.6556 35.0225 15.6556L33.1654 17.958C33.6274 18.224 34.1222 18.4486 34.6414 18.628C36.6929 19.3341 38.7919 19.3014 40.8597 18.5562C42.3554 18.0191 43.529 17.2 44.331 16.1619M50.4867 2.91455V15.7148L52.8883 16.5213L51.5236 19.1598L48.8728 18.2451C48.2777 18.0317 47.8728 17.7048 47.5661 17.3361C47.273 16.9602 47.0537 16.4442 47.0537 15.7496V2.91466L50.4867 2.91455ZM56.7082 12.4538C56.7095 11.3639 57.2904 10.3864 58.2094 9.72204L55.7455 7.44543C54.0745 8.66939 53.0219 10.458 53.0201 12.4507C53.0174 14.4441 54.0683 16.2345 55.7376 17.4617L58.1987 15.1828C57.284 14.5159 56.7071 13.5413 56.7082 12.4538ZM61.0859 16.087C60.6007 16.0858 60.1335 16.0194 59.6978 15.8992L58.5212 18.7983C59.3466 19.0276 60.2114 19.1448 61.082 19.1452C64.9833 19.1483 68.2408 16.8545 68.9956 13.8052L65.3789 13.1932C64.9676 14.846 63.2015 16.0881 61.0859 16.087ZM61.0966 5.76941C60.2272 5.76806 59.3632 5.88331 58.5381 6.11069L59.7045 9.01246C60.1525 8.88957 60.6213 8.82691 61.0931 8.82686C63.2138 8.82853 64.9811 10.078 65.3827 11.7354L68.9998 11.1276C68.2554 8.07383 65.0009 5.77154 61.0965 5.76953" fill="black"/>
</g>
<defs>
<clipPath id="clip0_4_127">
<rect width="69" height="22" fill="white"/>
</clipPath>
</defs>
</svg>
