<svg width="52" height="31" viewBox="0 0 52 31" fill="none" xmlns="http://www.w3.org/2000/svg">
<g clip-path="url(#clip0_30_48)">
<path d="M9.35741 30.5078V28.4786C9.35741 27.7005 8.73957 27.1933 7.68055 27.1933C7.15115 27.1933 6.57752 27.3286 6.18037 27.7683C5.87165 27.3962 5.43047 27.1933 4.76861 27.1933C4.32724 27.1933 3.88627 27.2947 3.53313 27.6668V27.2609H2.60657V30.5078H3.53313V28.7152C3.53313 28.1404 3.93029 27.8697 4.54813 27.8697C5.16557 27.8697 5.47469 28.1741 5.47469 28.7152V30.5078H6.40126V28.7152C6.40126 28.1404 6.84223 27.8697 7.41585 27.8697C8.03369 27.8697 8.34242 28.1741 8.34242 28.7152V30.5078H9.35741ZM23.0792 27.2609H21.5792V26.2801H20.6526V27.2609H19.8143V27.9034H20.6524V29.3917C20.6524 30.1359 21.0496 30.5755 22.1086 30.5755C22.5058 30.5755 22.9467 30.4741 23.2559 30.3388L22.991 29.7299C22.7263 29.8652 22.4175 29.8991 22.1968 29.8991C21.7557 29.8991 21.5792 29.6962 21.5792 29.3579V27.9034H23.0792V27.2609ZM30.9331 27.1931C30.4037 27.1931 30.0507 27.3962 29.83 27.6668V27.2609H28.9035V30.5078H29.83V28.6815C29.83 28.1404 30.1388 27.8359 30.7124 27.8359C30.8888 27.8359 31.1095 27.8698 31.286 27.9036L31.5507 27.2272C31.3742 27.1933 31.1095 27.1933 30.9331 27.1933M19.0642 27.5316C18.6228 27.2948 18.0052 27.1935 17.3433 27.1935C16.2845 27.1935 15.5787 27.5993 15.5787 28.2419C15.5787 28.7832 16.1081 29.0875 17.0346 29.189L17.4758 29.2229C17.9612 29.2904 18.2259 29.3919 18.2259 29.5611C18.2259 29.7977 17.873 29.9669 17.2551 29.9669C16.6373 29.9669 16.1521 29.7977 15.8432 29.6287L15.402 30.1698C15.8874 30.4404 16.5492 30.5756 17.2109 30.5756C18.4464 30.5756 19.1525 30.1361 19.1525 29.5272C19.1525 28.9522 18.5788 28.6477 17.6963 28.5464L17.2551 28.5125C16.858 28.4786 16.5492 28.4111 16.5492 28.2082C16.5492 27.9714 16.858 27.8361 17.3433 27.8361C17.8729 27.8361 18.4024 28.0051 18.6671 28.1066L19.0642 27.5316ZM43.6845 27.1935C43.1549 27.1935 42.8019 27.3964 42.5812 27.6669V27.2611H41.6547V30.508H42.5812V28.6816C42.5812 28.1405 42.8902 27.8361 43.4636 27.8361C43.6402 27.8361 43.8609 27.87 44.0374 27.9037L44.3021 27.2274C44.1256 27.1935 43.8609 27.1935 43.6845 27.1935ZM31.8596 28.8845C31.8596 29.8654 32.742 30.5756 34.1099 30.5756C34.7276 30.5756 35.1687 30.4743 35.6099 30.2037L35.1687 29.6287C34.8158 29.8316 34.4629 29.933 34.0657 29.933C33.3156 29.933 32.7862 29.5272 32.7862 28.8845C32.7862 28.2758 33.3156 27.8698 34.0657 27.8361C34.4629 27.8361 34.8158 27.9375 35.1687 28.1405L35.6099 27.5655C35.1687 27.2948 34.7276 27.1935 34.1099 27.1935C32.742 27.1935 31.8596 27.9037 31.8596 28.8845ZM40.4194 28.8845V27.2611H39.4928V27.6669C39.1839 27.3626 38.7427 27.1935 38.1691 27.1935C36.9778 27.1935 36.0513 27.9037 36.0513 28.8845C36.0513 29.8654 36.9778 30.5756 38.1691 30.5756C38.7867 30.5756 39.2281 30.4066 39.4928 30.1022V30.508H40.4194V28.8845ZM37.0219 28.8845C37.0219 28.3096 37.5072 27.8361 38.3014 27.8361C39.0514 27.8361 39.5811 28.2758 39.5811 28.8845C39.5811 29.4595 39.0514 29.933 38.3014 29.933C37.5072 29.8991 37.0219 29.4595 37.0219 28.8845ZM25.9473 27.1935C24.7118 27.1935 23.8293 27.8698 23.8293 28.8845C23.8293 29.8993 24.7116 30.5756 25.9913 30.5756C26.609 30.5756 27.2268 30.4404 27.7122 30.1361L27.2708 29.6287C26.9179 29.8316 26.4767 29.9669 26.0355 29.9669C25.4619 29.9669 24.8883 29.764 24.7558 29.1888H27.8887V28.9184C27.9329 27.8698 27.1388 27.1935 25.9473 27.1935ZM25.9471 27.8022C26.5205 27.8022 26.9179 28.0729 27.0059 28.5803H24.7999C24.8881 28.1405 25.2853 27.8022 25.9471 27.8022ZM48.9347 28.8845V25.9758H48.0082V27.6669C47.6992 27.3626 47.2581 27.1935 46.6844 27.1935C45.4932 27.1935 44.5666 27.9037 44.5666 28.8845C44.5666 29.8654 45.4932 30.5756 46.6844 30.5756C47.3023 30.5756 47.7435 30.4066 48.0082 30.1022V30.508H48.9347V28.8845ZM45.5374 28.8845C45.5374 28.3096 46.0226 27.8361 46.8169 27.8361C47.567 27.8361 48.0964 28.2758 48.0964 28.8845C48.0964 29.4595 47.567 29.933 46.8169 29.933C46.0226 29.8991 45.5374 29.4595 45.5374 28.8845ZM14.5635 28.8845V27.2611H13.6369V27.6669C13.328 27.3626 12.8868 27.1935 12.3132 27.1935C11.1219 27.1935 10.1953 27.9037 10.1953 28.8845C10.1953 29.8654 11.1219 30.5756 12.3132 30.5756C12.931 30.5756 13.3722 30.4066 13.6369 30.1022V30.508H14.5635V28.8845ZM11.1219 28.8845C11.1219 28.3096 11.6073 27.8361 12.4014 27.8361C13.1515 27.8361 13.6811 28.2758 13.6811 28.8845C13.6811 29.4595 13.1515 29.933 12.4014 29.933C11.6073 29.8991 11.1219 29.4595 11.1219 28.8845Z" fill="black"/>
<path d="M18.7553 2.60425H32.6537V21.7478H18.7553V2.60425Z" fill="#FF5F00"/>
<path d="M19.6376 12.1761C19.6376 8.28657 22.0201 4.83661 25.6822 2.60427C22.9909 0.980818 19.5936 0 15.8873 0C7.10668 0 0.00309753 5.44534 0.00309753 12.1761C0.00309753 18.9069 7.10668 24.3522 15.8871 24.3522C19.5934 24.3522 22.9907 23.3714 25.6822 21.7478C22.0201 19.5493 19.6376 16.0656 19.6376 12.1761Z" fill="#EB001B"/>
<path d="M51.4057 12.1761C51.4057 18.9067 44.3021 24.3522 35.5217 24.3522C31.8154 24.3522 28.4181 23.3714 25.7266 21.7478C29.4329 19.5156 31.7714 16.0656 31.7714 12.1761C31.7714 8.28657 29.3887 4.83661 25.7266 2.60427C28.4179 0.980818 31.8154 0 35.5217 0C44.3021 0 51.4057 5.47924 51.4057 12.1761Z" fill="#F79E1B"/>
<g clip-path="url(#clip1_30_48)">
<path d="M9.35741 30.5078V28.4786C9.35741 27.7005 8.73957 27.1933 7.68055 27.1933C7.15115 27.1933 6.57752 27.3286 6.18037 27.7683C5.87165 27.3962 5.43047 27.1933 4.76861 27.1933C4.32724 27.1933 3.88627 27.2947 3.53313 27.6668V27.2609H2.60657V30.5078H3.53313V28.7152C3.53313 28.1404 3.93029 27.8697 4.54813 27.8697C5.16557 27.8697 5.47469 28.1741 5.47469 28.7152V30.5078H6.40126V28.7152C6.40126 28.1404 6.84223 27.8697 7.41585 27.8697C8.03369 27.8697 8.34242 28.1741 8.34242 28.7152V30.5078H9.35741ZM23.0792 27.2609H21.5792V26.2801H20.6526V27.2609H19.8143V27.9034H20.6524V29.3917C20.6524 30.1359 21.0496 30.5755 22.1086 30.5755C22.5058 30.5755 22.9467 30.4741 23.2559 30.3388L22.991 29.7299C22.7263 29.8652 22.4175 29.8991 22.1968 29.8991C21.7557 29.8991 21.5792 29.6962 21.5792 29.3579V27.9034H23.0792V27.2609ZM30.9331 27.1931C30.4037 27.1931 30.0507 27.3962 29.83 27.6668V27.2609H28.9035V30.5078H29.83V28.6815C29.83 28.1404 30.1388 27.8359 30.7124 27.8359C30.8888 27.8359 31.1095 27.8698 31.286 27.9036L31.5507 27.2272C31.3742 27.1933 31.1095 27.1933 30.9331 27.1933M19.0642 27.5316C18.6228 27.2948 18.0052 27.1935 17.3433 27.1935C16.2845 27.1935 15.5787 27.5993 15.5787 28.2419C15.5787 28.7832 16.1081 29.0875 17.0346 29.189L17.4758 29.2229C17.9612 29.2904 18.2259 29.3919 18.2259 29.5611C18.2259 29.7977 17.873 29.9669 17.2551 29.9669C16.6373 29.9669 16.1521 29.7977 15.8432 29.6287L15.402 30.1698C15.8874 30.4404 16.5492 30.5756 17.2109 30.5756C18.4464 30.5756 19.1525 30.1361 19.1525 29.5272C19.1525 28.9522 18.5788 28.6477 17.6963 28.5464L17.2551 28.5125C16.858 28.4786 16.5492 28.4111 16.5492 28.2082C16.5492 27.9714 16.858 27.8361 17.3433 27.8361C17.8729 27.8361 18.4024 28.0051 18.6671 28.1066L19.0642 27.5316ZM43.6845 27.1935C43.1549 27.1935 42.8019 27.3964 42.5812 27.6669V27.2611H41.6547V30.508H42.5812V28.6816C42.5812 28.1405 42.8902 27.8361 43.4636 27.8361C43.6402 27.8361 43.8609 27.87 44.0374 27.9037L44.3021 27.2274C44.1256 27.1935 43.8609 27.1935 43.6845 27.1935ZM31.8596 28.8845C31.8596 29.8654 32.742 30.5756 34.1099 30.5756C34.7276 30.5756 35.1687 30.4743 35.6099 30.2037L35.1687 29.6287C34.8158 29.8316 34.4629 29.933 34.0657 29.933C33.3156 29.933 32.7862 29.5272 32.7862 28.8845C32.7862 28.2758 33.3156 27.8698 34.0657 27.8361C34.4629 27.8361 34.8158 27.9375 35.1687 28.1405L35.6099 27.5655C35.1687 27.2948 34.7276 27.1935 34.1099 27.1935C32.742 27.1935 31.8596 27.9037 31.8596 28.8845ZM40.4194 28.8845V27.2611H39.4928V27.6669C39.1839 27.3626 38.7427 27.1935 38.1691 27.1935C36.9778 27.1935 36.0513 27.9037 36.0513 28.8845C36.0513 29.8654 36.9778 30.5756 38.1691 30.5756C38.7867 30.5756 39.2281 30.4066 39.4928 30.1022V30.508H40.4194V28.8845ZM37.0219 28.8845C37.0219 28.3096 37.5072 27.8361 38.3014 27.8361C39.0514 27.8361 39.5811 28.2758 39.5811 28.8845C39.5811 29.4595 39.0514 29.933 38.3014 29.933C37.5072 29.8991 37.0219 29.4595 37.0219 28.8845ZM25.9473 27.1935C24.7118 27.1935 23.8293 27.8698 23.8293 28.8845C23.8293 29.8993 24.7116 30.5756 25.9913 30.5756C26.609 30.5756 27.2268 30.4404 27.7122 30.1361L27.2708 29.6287C26.9179 29.8316 26.4767 29.9669 26.0355 29.9669C25.4619 29.9669 24.8883 29.764 24.7558 29.1888H27.8887V28.9184C27.9329 27.8698 27.1388 27.1935 25.9473 27.1935ZM25.9471 27.8022C26.5205 27.8022 26.9179 28.0729 27.0059 28.5803H24.7999C24.8881 28.1405 25.2853 27.8022 25.9471 27.8022ZM48.9347 28.8845V25.9758H48.0082V27.6669C47.6992 27.3626 47.2581 27.1935 46.6844 27.1935C45.4932 27.1935 44.5666 27.9037 44.5666 28.8845C44.5666 29.8654 45.4932 30.5756 46.6844 30.5756C47.3023 30.5756 47.7435 30.4066 48.0082 30.1022V30.508H48.9347V28.8845ZM45.5374 28.8845C45.5374 28.3096 46.0226 27.8361 46.8169 27.8361C47.567 27.8361 48.0964 28.2758 48.0964 28.8845C48.0964 29.4595 47.567 29.933 46.8169 29.933C46.0226 29.8991 45.5374 29.4595 45.5374 28.8845ZM14.5635 28.8845V27.2611H13.6369V27.6669C13.328 27.3626 12.8868 27.1935 12.3132 27.1935C11.1219 27.1935 10.1953 27.9037 10.1953 28.8845C10.1953 29.8654 11.1219 30.5756 12.3132 30.5756C12.931 30.5756 13.3722 30.4066 13.6369 30.1022V30.508H14.5635V28.8845ZM11.1219 28.8845C11.1219 28.3096 11.6073 27.8361 12.4014 27.8361C13.1515 27.8361 13.6811 28.2758 13.6811 28.8845C13.6811 29.4595 13.1515 29.933 12.4014 29.933C11.6073 29.8991 11.1219 29.4595 11.1219 28.8845Z" fill="black"/>
<path d="M18.7553 2.60425H32.6537V21.7478H18.7553V2.60425Z" fill="#FF5F00"/>
<path d="M19.6376 12.1761C19.6376 8.28657 22.0201 4.83661 25.6822 2.60427C22.9909 0.980818 19.5936 0 15.8873 0C7.10668 0 0.00309753 5.44534 0.00309753 12.1761C0.00309753 18.9069 7.10668 24.3522 15.8871 24.3522C19.5934 24.3522 22.9907 23.3714 25.6822 21.7478C22.0201 19.5493 19.6376 16.0656 19.6376 12.1761Z" fill="#EB001B"/>
<path d="M51.4057 12.1761C51.4057 18.9067 44.3021 24.3522 35.5217 24.3522C31.8154 24.3522 28.4181 23.3714 25.7266 21.7478C29.4329 19.5156 31.7714 16.0656 31.7714 12.1761C31.7714 8.28657 29.3887 4.83661 25.7266 2.60427C28.4179 0.980818 31.8154 0 35.5217 0C44.3021 0 51.4057 5.47924 51.4057 12.1761Z" fill="#F79E1B"/>
</g>
</g>
<defs>
<clipPath id="clip0_30_48">
<rect width="51.4601" height="30.6602" fill="white"/>
</clipPath>
<clipPath id="clip1_30_48">
<rect width="51.4601" height="30.6602" fill="white"/>
</clipPath>
</defs>
</svg>
