<svg width="30" height="30" viewBox="0 0 30 30" fill="none" xmlns="http://www.w3.org/2000/svg">
<path d="M29.7704 9.39141C29.55 7.17656 28.0571 5.31797 26.2266 4.19062C24.15 2.90625 21.7477 2.14453 19.3383 1.80234C17.1375 1.48828 14.8993 1.42031 12.6821 1.59609C11.5969 1.68281 10.5118 1.81641 9.44536 2.02969C8.04145 2.31094 6.45707 2.78203 5.00161 3.50391C2.57582 4.70156 0.506293 6.58359 0.229731 9.39141C0.135981 10.35 0.260199 11.1586 0.860199 11.9109C0.946918 12.0187 1.0477 12.1148 1.15317 12.2039C1.18364 12.2297 1.21645 12.2531 1.25161 12.2789C1.33364 12.3422 1.42036 12.3984 1.51176 12.45C1.54692 12.4711 1.58207 12.4922 1.62192 12.5109C1.74848 12.5766 1.88207 12.6352 2.0227 12.6844L2.04614 12.6914C2.18207 12.7383 2.32504 12.7758 2.47036 12.8062C2.63465 12.8405 2.80046 12.8671 2.96723 12.8859C3.01645 12.8906 3.06098 12.8977 3.10786 12.9C3.27192 12.9117 3.44067 12.9211 3.60942 12.9211C3.82973 12.9211 4.05004 12.907 4.27504 12.8859C4.34067 12.8789 4.41098 12.8695 4.47661 12.8602C4.63598 12.8414 4.79536 12.818 4.95239 12.7875C5.02973 12.7734 5.10473 12.7594 5.18442 12.743C5.2852 12.7219 5.38598 12.6938 5.48676 12.6703L5.39067 13.0875L3.04926 20.182C3.04926 20.182 2.57348 21.7547 2.53832 23.2547C2.50082 24.7547 2.53832 25.5398 2.58754 26.4328C2.62036 27.0164 3.01411 28.3336 4.62192 28.3336H5.76332L14.9977 10.8703L24.2321 28.3336H25.3711C26.9813 28.3336 27.375 27.0164 27.4079 26.4328C27.4571 25.5398 27.4946 24.7523 27.4571 23.2547C27.4196 21.7547 26.9461 20.182 26.9461 20.182L24.6047 13.0875L24.5086 12.668C24.6141 12.6937 24.7172 12.7219 24.8227 12.7453C24.8977 12.7617 24.975 12.7758 25.05 12.7898C25.2094 12.818 25.3711 12.8414 25.5305 12.8625C25.5961 12.8695 25.6618 12.8813 25.7297 12.8883C25.9547 12.9094 26.1774 12.9234 26.3977 12.9234C26.5665 12.9234 26.7329 12.9141 26.8946 12.9023L27.0375 12.8883C27.1594 12.8742 27.279 12.8578 27.3938 12.8367C27.443 12.8273 27.4875 12.818 27.5321 12.8109C27.6797 12.7781 27.8274 12.743 27.9633 12.6937C27.968 12.6914 27.975 12.6914 27.9797 12.6891C28.1204 12.6398 28.2563 12.5812 28.3829 12.5133C28.4204 12.4945 28.4532 12.4734 28.4907 12.4523C28.5821 12.4008 28.6711 12.3422 28.7532 12.2789C28.786 12.2531 28.8188 12.2297 28.8493 12.2063C28.9571 12.1172 29.0579 12.0211 29.1422 11.9133C29.7399 11.1586 29.8641 10.3477 29.7704 9.39141Z" fill="#40C0E7"/>
<mask id="mask0_2_65" style="mask-type:luminance" maskUnits="userSpaceOnUse" x="0" y="1" width="30" height="28">
<path d="M29.7704 9.39141C29.55 7.17656 28.0571 5.31797 26.2266 4.19062C24.15 2.90625 21.7477 2.14453 19.3383 1.80234C17.1375 1.48828 14.8993 1.42031 12.6821 1.59609C11.5969 1.68281 10.5118 1.81641 9.44536 2.02969C8.04145 2.31094 6.45707 2.78203 5.00161 3.50391C2.57582 4.70156 0.506293 6.58359 0.229731 9.39141C0.135981 10.35 0.260199 11.1586 0.860199 11.9109C0.946918 12.0187 1.0477 12.1148 1.15317 12.2039C1.18364 12.2297 1.21645 12.2531 1.25161 12.2789C1.33364 12.3422 1.42036 12.3984 1.51176 12.45C1.54692 12.4711 1.58207 12.4922 1.62192 12.5109C1.74848 12.5766 1.88207 12.6352 2.0227 12.6844L2.04614 12.6914C2.18207 12.7383 2.32504 12.7758 2.47036 12.8062C2.63465 12.8405 2.80046 12.8671 2.96723 12.8859C3.01645 12.8906 3.06098 12.8977 3.10786 12.9C3.27192 12.9117 3.44067 12.9211 3.60942 12.9211C3.82973 12.9211 4.05004 12.907 4.27504 12.8859C4.34067 12.8789 4.41098 12.8695 4.47661 12.8602C4.63598 12.8414 4.79536 12.818 4.95239 12.7875C5.02973 12.7734 5.10473 12.7594 5.18442 12.743C5.2852 12.7219 5.38598 12.6938 5.48676 12.6703L5.39067 13.0875L3.04926 20.182C3.04926 20.182 2.57348 21.7547 2.53832 23.2547C2.50082 24.7547 2.53832 25.5398 2.58754 26.4328C2.62036 27.0164 3.01411 28.3336 4.62192 28.3336H5.76332L14.9977 10.8703L24.2321 28.3336H25.3711C26.9813 28.3336 27.375 27.0164 27.4079 26.4328C27.4571 25.5398 27.4946 24.7523 27.4571 23.2547C27.4196 21.7547 26.9461 20.182 26.9461 20.182L24.6047 13.0875L24.5086 12.668C24.6141 12.6937 24.7172 12.7219 24.8227 12.7453C24.8977 12.7617 24.975 12.7758 25.05 12.7898C25.2094 12.818 25.3711 12.8414 25.5305 12.8625C25.5961 12.8695 25.6618 12.8813 25.7297 12.8883C25.9547 12.9094 26.1774 12.9234 26.3977 12.9234C26.5665 12.9234 26.7329 12.9141 26.8946 12.9023L27.0375 12.8883C27.1594 12.8742 27.279 12.8578 27.3938 12.8367C27.443 12.8273 27.4875 12.818 27.5321 12.8109C27.6797 12.7781 27.8274 12.743 27.9633 12.6937C27.968 12.6914 27.975 12.6914 27.9797 12.6891C28.1204 12.6398 28.2563 12.5812 28.3829 12.5133C28.4204 12.4945 28.4532 12.4734 28.4907 12.4523C28.5821 12.4008 28.6711 12.3422 28.7532 12.2789C28.786 12.2531 28.8188 12.2297 28.8493 12.2063C28.9571 12.1172 29.0579 12.0211 29.1422 11.9133C29.7399 11.1586 29.8641 10.3477 29.7704 9.39141Z" fill="white"/>
</mask>
<g mask="url(#mask0_2_65)">
<path d="M5.85476 14.3672C5.85476 14.3672 4.63601 14.5031 3.97742 14.4305L4.34304 7.42031L12.7196 4.89844L19.2657 5.51953C19.2657 5.51953 24.8251 7.60313 24.9704 7.71328C25.1157 7.82344 26.8712 12.1383 26.8712 12.1383L27.3844 14.4539C27.3844 14.4539 25.629 14.6484 24.0376 14.3391L5.85476 14.3672Z" fill="#2F2F2F"/>
</g>
<path d="M14.2804 13.3172C14.421 13.2609 14.632 13.2094 14.789 13.2188C15.0914 13.2352 15.4781 13.2023 15.7359 13.3359C16.071 13.5094 16.0195 13.9125 15.989 14.175C15.9726 14.332 15.8976 14.4914 15.6984 14.5664C15.6093 14.6039 15.4968 14.6227 15.3656 14.6344C15.1687 14.6484 14.9718 14.6461 14.7726 14.6414C14.3156 14.6297 14.039 14.4891 14.0273 14.1234C14.0226 13.8914 13.95 13.4508 14.2804 13.3172ZM14.2523 15.4992C14.3976 15.4383 14.6179 15.382 14.7843 15.3914C15.096 15.4102 15.4968 15.3727 15.7664 15.518C16.1179 15.7055 16.064 16.1461 16.0335 16.4297C16.0148 16.6008 15.9375 16.7719 15.7312 16.8563C15.6375 16.8938 15.5226 16.9172 15.3843 16.9266C15.1781 16.943 14.9742 16.9383 14.7679 16.9336C14.2898 16.9219 14.0015 16.7672 13.9898 16.3711C13.9828 16.1203 13.9054 15.6445 14.2523 15.4992ZM14.2242 17.8734C14.3765 17.8078 14.6039 17.7445 14.7796 17.7563C15.1054 17.7773 15.525 17.7352 15.8085 17.8945C16.1718 18.0984 16.1179 18.5789 16.0851 18.8883C16.0687 19.0734 15.9843 19.2633 15.771 19.357C15.6726 19.3969 15.5507 19.4227 15.4078 19.4344C15.1921 19.4508 14.9789 19.4484 14.7632 19.4438C14.2617 19.4297 13.964 19.2633 13.95 18.8273C13.9406 18.5531 13.8609 18.0305 14.2242 17.8734ZM12.2273 21.5789C12.1945 21.7805 12.0937 21.9891 11.8617 22.0898C11.7562 22.1367 11.6296 22.1648 11.475 22.1766C11.2523 22.1953 11.025 22.1906 10.8 22.1836C10.2773 22.1695 9.97261 21.9867 9.9937 21.5086C10.0054 21.2063 9.95855 20.6391 10.35 20.4656C10.5117 20.393 10.7601 20.325 10.9382 20.3391C11.2781 20.3602 11.721 20.3156 12.007 20.4914C12.375 20.7117 12.2812 21.2367 12.2273 21.5789ZM12.3468 18.8883C12.3187 19.0734 12.225 19.2633 12.0023 19.357C11.9015 19.3969 11.7796 19.4227 11.632 19.4344C11.4187 19.4508 11.2031 19.4484 10.9875 19.4438C10.4882 19.4297 10.1976 19.2633 10.2164 18.8273C10.2257 18.5531 10.1789 18.0328 10.5515 17.8758C10.7062 17.8102 10.9406 17.7469 11.114 17.7586C11.4375 17.7797 11.8617 17.7375 12.1335 17.8969C12.4875 18.0984 12.3984 18.5789 12.3468 18.8883ZM12.4593 16.4297C12.4312 16.6008 12.3398 16.7719 12.1289 16.8563C12.0328 16.8938 11.9156 16.9172 11.7773 16.9266C11.571 16.943 11.3648 16.9383 11.1609 16.9336C10.6828 16.9219 10.4039 16.7672 10.4203 16.3711C10.4296 16.118 10.3828 15.6422 10.7414 15.4969C10.889 15.4359 11.114 15.3797 11.2781 15.3891C11.5875 15.4078 11.9929 15.3703 12.2554 15.5156C12.5906 15.7078 12.5085 16.1461 12.4593 16.4297ZM12.5601 14.175C12.532 14.332 12.4453 14.4914 12.2414 14.5664C12.15 14.6039 12.0375 14.6227 11.9039 14.6344C11.707 14.6484 11.5101 14.6461 11.3109 14.6414C10.8539 14.6297 10.5867 14.4891 10.6007 14.1234C10.6078 13.8914 10.5609 13.4508 10.9078 13.3172C11.0484 13.2609 11.2617 13.2094 11.421 13.2188C11.7187 13.2352 12.1078 13.2023 12.3609 13.3359C12.6843 13.507 12.607 13.9125 12.5601 14.175ZM16.139 21.5789C16.1203 21.7805 16.0335 21.9891 15.8085 22.0898C15.7078 22.1367 15.5789 22.1648 15.4265 22.1766C15.2015 22.1953 14.9765 22.1906 14.7539 22.1836C14.2312 22.1695 13.9148 21.9867 13.9031 21.5086C13.896 21.2063 13.8117 20.6391 14.1937 20.4656C14.3531 20.393 14.5921 20.325 14.7726 20.3391C15.1148 20.3602 15.5554 20.3156 15.8507 20.4914C16.2281 20.7117 16.1695 21.2367 16.139 21.5789ZM17.4562 14.1234C17.4351 13.8914 17.332 13.4508 17.6578 13.3172C17.7937 13.2609 18 13.2094 18.1617 13.2188C18.464 13.2352 18.846 13.2023 19.1156 13.3359C19.4601 13.5094 19.439 13.9125 19.425 14.175C19.4179 14.332 19.3523 14.4914 19.1601 14.5688C19.0734 14.6039 18.9632 14.625 18.832 14.6344C18.6351 14.6484 18.4382 14.6461 18.2414 14.6414C17.775 14.6273 17.4914 14.4891 17.4562 14.1234ZM17.7703 15.4992C17.9132 15.4383 18.1289 15.382 18.2929 15.3914C18.607 15.4102 19.0054 15.3727 19.2867 15.518C19.6476 15.7055 19.6218 16.1461 19.6101 16.4297C19.6031 16.6008 19.5351 16.7719 19.3335 16.8563C19.2445 16.8938 19.1296 16.9172 18.9914 16.9266C18.7875 16.943 18.5812 16.9383 18.3773 16.9336C17.8945 16.9219 17.5992 16.7672 17.5617 16.3711C17.5382 16.1203 17.4304 15.6445 17.7703 15.4992ZM17.8945 17.8734C18.0398 17.8078 18.2671 17.7445 18.4406 17.7563C18.7664 17.7773 19.1859 17.7352 19.4789 17.8945C19.8585 18.0984 19.8328 18.5789 19.821 18.8883C19.8164 19.0734 19.7437 19.2633 19.5351 19.357C19.439 19.3969 19.3195 19.4227 19.1765 19.4344C18.9632 19.4508 18.7476 19.4484 18.532 19.4438C18.0304 19.4297 17.7187 19.2633 17.6812 18.8273C17.6554 18.5531 17.5406 18.0305 17.8945 17.8734ZM20.0484 21.5789C20.0414 21.7805 19.9687 21.9891 19.7484 22.0898C19.65 22.1367 19.5257 22.1648 19.3734 22.1766C19.1507 22.1953 18.9257 22.1906 18.7007 22.1836C18.1734 22.1695 17.8476 21.9867 17.8054 21.5086C17.7773 21.2063 17.6601 20.6391 18.0304 20.4656C18.1828 20.393 18.4195 20.325 18.6 20.3391C18.9421 20.3602 19.3781 20.3156 19.6875 20.4914C20.0835 20.7117 20.0578 21.2367 20.0484 21.5789Z" fill="white"/>
<path d="M26.2031 21.2859C25.9172 20.407 25.6524 19.5164 25.3688 18.6352C24.9094 17.2078 24.4735 15.7758 24.0375 14.3414C22.6289 13.9594 21.2555 13.2562 20.5125 12.2602C19.711 11.1891 20.0438 9.99375 20.2664 9.2039L20.2899 9.11484C20.1024 8.94375 19.5047 8.62265 17.5945 8.29922L17.4164 8.26875C16.9266 8.18203 16.4016 8.1375 15.0258 8.1375H14.9742C13.6008 8.1375 13.0758 8.18203 12.586 8.26875L12.4078 8.29922C10.5 8.62031 9.90002 8.94375 9.71252 9.11484L9.7383 9.20859C9.95861 9.99843 10.2891 11.1914 9.48986 12.2602C8.73049 13.2797 7.30548 13.9945 5.85705 14.3695C5.4258 15.7945 4.9922 17.2172 4.53283 18.6352C4.24923 19.5187 3.98439 20.407 3.69845 21.2859C3.57425 21.6669 3.48482 22.0583 3.43127 22.4555C3.24611 23.7539 3.38439 25.0594 3.3797 26.3883C3.37267 27.8062 4.06408 28.3336 5.7633 28.3336H24.1406C25.8422 28.3336 26.5336 27.8062 26.5242 26.3883C26.5172 25.0594 26.6578 23.7539 26.4727 22.4555C26.4141 22.0664 26.3297 21.675 26.2031 21.2859ZM14.2805 13.3172C14.4211 13.2609 14.632 13.2094 14.7891 13.2187C15.0914 13.2352 15.4781 13.2023 15.736 13.3359C16.0711 13.5094 16.0195 13.9125 15.9891 14.175C15.9727 14.332 15.8977 14.4914 15.6985 14.5664C15.6094 14.6039 15.4969 14.6227 15.3656 14.6344C15.1688 14.6484 14.9719 14.6461 14.7727 14.6414C14.3156 14.6297 14.0391 14.4891 14.0274 14.1234C14.0227 13.8914 13.95 13.4508 14.2805 13.3172ZM14.2524 15.4992C14.3977 15.4383 14.618 15.382 14.7844 15.3914C15.0961 15.4102 15.4969 15.3727 15.7664 15.518C16.118 15.7055 16.0641 16.1461 16.0336 16.4297C16.0149 16.6008 15.9375 16.7719 15.7313 16.8562C15.6375 16.8937 15.5227 16.9172 15.3844 16.9266C15.1781 16.943 14.9742 16.9383 14.768 16.9336C14.2899 16.9219 14.0016 16.7672 13.9899 16.3711C13.9828 16.1203 13.9055 15.6445 14.2524 15.4992ZM14.2242 17.8734C14.3766 17.8078 14.6039 17.7445 14.7797 17.7562C15.1055 17.7773 15.525 17.7352 15.8086 17.8945C16.1719 18.0984 16.118 18.5789 16.0852 18.8883C16.0688 19.0734 15.9844 19.2633 15.7711 19.357C15.6727 19.3969 15.5508 19.4227 15.4078 19.4344C15.1922 19.4508 14.9789 19.4484 14.7633 19.4437C14.2617 19.4297 13.9641 19.2633 13.95 18.8273C13.9406 18.5531 13.861 18.0305 14.2242 17.8734ZM12.2274 21.5789C12.1945 21.7805 12.0938 21.9891 11.8617 22.0898C11.7563 22.1367 11.6297 22.1648 11.475 22.1766C11.2524 22.1953 11.025 22.1906 10.8 22.1836C10.2774 22.1695 9.97267 21.9867 9.99377 21.5086C10.0055 21.2062 9.95861 20.6391 10.35 20.4656C10.5117 20.393 10.7602 20.325 10.9383 20.3391C11.2781 20.3602 11.7211 20.3156 12.007 20.4914C12.375 20.7117 12.2813 21.2367 12.2274 21.5789ZM12.3469 18.8883C12.3188 19.0734 12.225 19.2633 12.0024 19.357C11.9016 19.3969 11.7797 19.4227 11.632 19.4344C11.4188 19.4508 11.2031 19.4484 10.9875 19.4437C10.4883 19.4297 10.1977 19.2633 10.2164 18.8273C10.2258 18.5531 10.1789 18.0328 10.5516 17.8758C10.7063 17.8102 10.9406 17.7469 11.1141 17.7586C11.4375 17.7797 11.8617 17.7375 12.1336 17.8969C12.4875 18.0984 12.3985 18.5789 12.3469 18.8883ZM12.4594 16.4297C12.4313 16.6008 12.3399 16.7719 12.1289 16.8562C12.0328 16.8937 11.9156 16.9172 11.7774 16.9266C11.5711 16.943 11.3649 16.9383 11.161 16.9336C10.6828 16.9219 10.4039 16.7672 10.4203 16.3711C10.4297 16.118 10.3828 15.6422 10.7414 15.4969C10.8891 15.4359 11.1141 15.3797 11.2781 15.3891C11.5875 15.4078 11.993 15.3703 12.2555 15.5156C12.5906 15.7078 12.5086 16.1461 12.4594 16.4297ZM12.5602 14.175C12.532 14.332 12.4453 14.4914 12.2414 14.5664C12.15 14.6039 12.0375 14.6227 11.9039 14.6344C11.707 14.6484 11.5102 14.6461 11.311 14.6414C10.8539 14.6297 10.5867 14.4891 10.6008 14.1234C10.6078 13.8914 10.561 13.4508 10.9078 13.3172C11.0485 13.2609 11.2617 13.2094 11.4211 13.2187C11.7188 13.2352 12.1078 13.2023 12.361 13.3359C12.6844 13.507 12.607 13.9125 12.5602 14.175ZM16.1391 21.5789C16.1203 21.7805 16.0336 21.9891 15.8086 22.0898C15.7078 22.1367 15.5789 22.1648 15.4266 22.1766C15.2016 22.1953 14.9766 22.1906 14.7539 22.1836C14.2313 22.1695 13.9149 21.9867 13.9031 21.5086C13.8961 21.2062 13.8117 20.6391 14.1938 20.4656C14.3531 20.393 14.5922 20.325 14.7727 20.3391C15.1149 20.3602 15.5555 20.3156 15.8508 20.4914C16.2281 20.7117 16.1695 21.2367 16.1391 21.5789ZM17.4563 14.1234C17.4352 13.8914 17.332 13.4508 17.6578 13.3172C17.7938 13.2609 18 13.2094 18.1617 13.2187C18.4641 13.2352 18.8461 13.2023 19.1156 13.3359C19.4602 13.5094 19.4391 13.9125 19.425 14.175C19.418 14.332 19.3524 14.4914 19.1602 14.5687C19.0735 14.6039 18.9633 14.625 18.832 14.6344C18.6352 14.6484 18.4383 14.6461 18.2414 14.6414C17.775 14.6273 17.4914 14.4891 17.4563 14.1234ZM17.7703 15.4992C17.9133 15.4383 18.1289 15.382 18.293 15.3914C18.607 15.4102 19.0055 15.3727 19.2867 15.518C19.6477 15.7055 19.6219 16.1461 19.6102 16.4297C19.6031 16.6008 19.5352 16.7719 19.3336 16.8562C19.2445 16.8937 19.1297 16.9172 18.9914 16.9266C18.7875 16.943 18.5813 16.9383 18.3774 16.9336C17.8945 16.9219 17.5992 16.7672 17.5617 16.3711C17.5383 16.1203 17.4305 15.6445 17.7703 15.4992ZM17.8945 17.8734C18.0399 17.8078 18.2672 17.7445 18.4406 17.7562C18.7664 17.7773 19.186 17.7352 19.4789 17.8945C19.8586 18.0984 19.8328 18.5789 19.8211 18.8883C19.8164 19.0734 19.7438 19.2633 19.5352 19.357C19.4391 19.3969 19.3195 19.4227 19.1766 19.4344C18.9633 19.4508 18.7477 19.4484 18.532 19.4437C18.0305 19.4297 17.7188 19.2633 17.6813 18.8273C17.6555 18.5531 17.5406 18.0305 17.8945 17.8734ZM20.0485 21.5789C20.0414 21.7805 19.9688 21.9891 19.7485 22.0898C19.65 22.1367 19.5258 22.1648 19.3735 22.1766C19.1508 22.1953 18.9258 22.1906 18.7008 22.1836C18.1735 22.1695 17.8477 21.9867 17.8055 21.5086C17.7774 21.2062 17.6602 20.6391 18.0305 20.4656C18.1828 20.393 18.4195 20.325 18.6 20.3391C18.9422 20.3602 19.3781 20.3156 19.6875 20.4914C20.0836 20.7117 20.0578 21.2367 20.0485 21.5789Z" fill="#006CA2"/>
<path d="M29.7704 9.975C29.3274 5.48438 24.2977 3.36094 20.5547 2.61328C19.2352 2.35078 17.8383 2.18438 16.425 2.11875H16.4227C15.9774 2.09766 15.5297 2.08828 15.0821 2.08828C15.0563 2.08828 15.0282 2.08594 15.0047 2.08594C14.5641 2.08594 14.1211 2.09766 13.6782 2.11641C13.6477 2.11641 13.6172 2.11641 13.5844 2.11875C13.1907 2.1375 12.7969 2.16797 12.4079 2.20078C12.3329 2.20781 12.2555 2.21016 12.1805 2.21719C11.918 2.24297 11.6625 2.27813 11.4047 2.31094C10.7414 2.39297 10.0829 2.48906 9.4477 2.61563C5.70239 3.36094 0.675043 5.48438 0.229731 9.975C0.135981 10.9336 0.260199 11.7422 0.860199 12.4969C0.946918 12.6047 1.0477 12.6984 1.15317 12.7898C1.18364 12.8156 1.21645 12.8391 1.25161 12.8648C1.33364 12.9281 1.42036 12.9844 1.51176 13.0359C1.54692 13.057 1.58207 13.0781 1.62192 13.0969C1.74848 13.1625 1.88207 13.2211 2.0227 13.2703L2.04614 13.2773C2.23144 13.3388 2.42101 13.3866 2.61332 13.4203C2.72817 13.4414 2.84536 13.4578 2.96723 13.4719C3.01645 13.4766 3.06098 13.4836 3.10786 13.4859C3.27192 13.5 3.44067 13.507 3.60942 13.507C3.82973 13.507 4.05004 13.493 4.27504 13.4719C4.34067 13.4648 4.41098 13.4555 4.47661 13.4461C4.63598 13.4273 4.79536 13.4039 4.95239 13.3734C5.02973 13.3594 5.10473 13.3453 5.18442 13.3289C5.33911 13.2961 5.49379 13.2586 5.64614 13.2164C5.71411 13.1977 5.78442 13.1812 5.85004 13.1602C5.99301 13.118 6.12661 13.0688 6.26489 13.0195C6.32817 12.9961 6.39848 12.9773 6.46176 12.9539L6.4852 12.9469C6.68911 12.8672 6.88598 12.7781 7.07348 12.6867C7.12973 12.6586 7.18364 12.6281 7.23754 12.5977C7.36411 12.5297 7.48832 12.457 7.60551 12.382C7.66411 12.3469 7.72036 12.3094 7.77192 12.2719C7.88442 12.1945 7.9852 12.1172 8.08364 12.0352C8.26075 11.8977 8.41843 11.7368 8.55239 11.557C9.05161 10.8891 8.75629 10.0594 8.55473 9.31875C8.36957 8.62734 8.90161 8.15156 9.63754 7.81875C10.5774 7.39453 11.85 7.20703 12.3844 7.11563C12.4594 7.10156 12.5321 7.08984 12.6094 7.07813L12.6704 7.07109C12.7266 7.06406 12.7875 7.05469 12.8485 7.04766C12.8485 7.04766 12.8672 7.04766 12.8766 7.04531C12.9493 7.03594 13.0243 7.02891 13.1063 7.02187C13.1227 7.01953 13.1414 7.01953 13.1579 7.01719C13.2305 7.01016 13.3055 7.00547 13.3899 7.00078C13.4227 6.99844 13.4579 6.99844 13.493 6.99609C13.5633 6.99375 13.6336 6.98906 13.711 6.98672C13.7555 6.98438 13.8047 6.98438 13.8516 6.98203L14.0789 6.975C14.1352 6.975 14.2032 6.975 14.2664 6.97266C14.3438 6.97031 14.4164 6.96797 14.5032 6.96797H15.504C15.5883 6.96797 15.668 6.97031 15.7454 6.97266C15.8063 6.97266 15.8743 6.97266 15.9305 6.975L16.1625 6.98203C16.2071 6.98438 16.254 6.98438 16.2961 6.98672C16.3782 6.98906 16.4508 6.99375 16.5235 6.99844C16.5516 7.00078 16.5868 7.00078 16.6172 7.00312C16.7016 7.00781 16.7813 7.0125 16.8586 7.02187C16.8704 7.02187 16.8868 7.02422 16.9008 7.02422C16.9805 7.03125 17.0555 7.03828 17.1282 7.04766C17.1375 7.04766 17.1469 7.05 17.1563 7.05C17.2172 7.05703 17.2758 7.06641 17.3344 7.07344L17.393 7.08047C17.468 7.09219 17.543 7.10391 17.6204 7.11797C18.1618 7.21172 19.4555 7.40156 20.4 7.83516C21.1172 8.16563 21.6352 8.63906 21.45 9.32109C21.2508 10.0617 20.9532 10.8914 21.4547 11.5594C21.5485 11.6883 21.668 11.8102 21.7946 11.9297C21.8344 11.9672 21.879 12.0023 21.9211 12.0375C22.0196 12.1195 22.1204 12.1992 22.2329 12.2742C22.2844 12.3117 22.343 12.3492 22.3969 12.3844C22.5164 12.4594 22.6383 12.5297 22.7672 12.6C22.8211 12.6281 22.875 12.6586 22.9313 12.6891C23.1188 12.7828 23.3157 12.8695 23.5196 12.9492L23.5407 12.9562C23.5688 12.968 23.5993 12.975 23.6274 12.9867C23.7985 13.05 23.9743 13.1109 24.1524 13.1625C24.218 13.1836 24.286 13.2 24.3563 13.2188C24.5086 13.2609 24.6657 13.2984 24.8204 13.3313C24.8954 13.3477 24.9727 13.3617 25.0477 13.3758C25.2071 13.4062 25.3688 13.4273 25.5282 13.4484C25.5938 13.4555 25.6594 13.4672 25.7274 13.4742C25.9524 13.4953 26.175 13.5094 26.3954 13.5094C26.5641 13.5094 26.7305 13.5 26.8922 13.4883C26.9415 13.4859 26.9883 13.4789 27.0352 13.4742C27.1571 13.4602 27.2766 13.4438 27.3915 13.4227C27.4407 13.4133 27.4852 13.4039 27.5297 13.3969C27.6774 13.3641 27.825 13.3289 27.961 13.282C27.9657 13.2797 27.9727 13.2773 27.9774 13.2773C28.118 13.2281 28.254 13.1695 28.3805 13.1039C28.418 13.0852 28.4508 13.0641 28.4883 13.043C28.5797 12.9914 28.6688 12.9328 28.7508 12.8695C28.7836 12.8438 28.8165 12.8203 28.8469 12.7945C28.9547 12.7055 29.0555 12.6094 29.1399 12.5016C29.7399 11.7445 29.8641 10.9336 29.7704 9.975Z" fill="#006CA2"/>
<path d="M2.24067 7.76718C2.04848 7.84922 1.77895 8.20547 1.67817 8.38593C1.02661 9.55078 0.960981 11.5312 2.38364 12.1641C3.10786 12.4852 4.12036 11.925 3.5602 11.0742C3.39379 10.8211 3.05161 10.7227 2.83598 10.5234C2.13051 9.87656 2.38832 8.98828 2.44458 8.16328C2.47036 7.79062 2.37426 7.71093 2.24067 7.76718ZM22.9899 9.45468C22.6383 9.62578 22.5 10.0898 22.5961 10.4484C22.8094 11.2477 24.1899 10.7297 23.7375 9.83437C23.5266 9.4125 23.2313 9.3375 22.9899 9.45468Z" fill="white"/>
</svg>
