<svg width="52" height="40" viewBox="0 0 52 40" fill="none" xmlns="http://www.w3.org/2000/svg">
<g clip-path="url(#clip0_30_42)">
<path d="M34.0508 23.434C34.0508 22.9124 33.7637 22.6256 33.3194 22.4202C32.8729 22.2246 32.3328 22.2002 31.5972 22.2002H28.3165V26.7964H29.7516V25.1225H31.2825C31.7928 25.1225 32.1117 25.1616 32.2988 25.3263C32.5539 25.5381 32.5199 25.9456 32.5199 26.2227V26.7931H33.9232V25.8885C33.919 25.4811 33.8871 25.2757 33.6936 25.0475C33.5097 24.8736 33.267 24.7416 32.9919 24.6662L33.0345 24.6531C33.3459 24.5538 33.6105 24.3841 33.7928 24.1666C33.9751 23.949 34.0666 23.694 34.055 23.4356L34.0508 23.434ZM32.201 24.0973L32.1415 24.0941C31.9501 24.1805 31.7269 24.1886 31.4398 24.1886H29.7176V23.1618H31.4696C31.7247 23.1618 31.9799 23.1618 32.1712 23.2433C32.2714 23.2813 32.3549 23.3408 32.4116 23.4146C32.4682 23.4885 32.4955 23.5734 32.4902 23.6589C32.4902 23.8545 32.3945 24.0093 32.2053 24.099L32.201 24.0973ZM43.1551 25.8119H40.3974V26.7899H43.17C44.6073 26.7899 45.4025 26.3368 45.4025 25.3491C45.4025 24.8927 45.2621 24.6189 45.0049 24.4005C44.6796 24.1837 44.1714 24.0859 43.4527 24.0631L42.6533 24.0387C42.4322 24.0387 42.2706 24.0387 42.1111 23.9898C42.0159 23.9681 41.9328 23.9226 41.875 23.8606C41.8172 23.7986 41.7881 23.7236 41.7922 23.6475C41.7922 23.5008 41.8283 23.3769 41.9836 23.3052C42.1604 23.2313 42.3609 23.1974 42.5619 23.2074H45.1771V22.2263H42.3067C40.8099 22.2263 40.2699 22.9385 40.2699 23.5953C40.2699 25.0622 41.9198 24.9889 43.2614 25.0133C43.4825 25.0133 43.6441 25.0378 43.7398 25.1111C43.8376 25.16 43.9141 25.2839 43.9141 25.4045C43.9141 25.53 43.8397 25.649 43.744 25.6979C43.6165 25.7842 43.4251 25.8119 43.1551 25.8119ZM0 0V16.455L1.72221 13.3974H5.44302L5.92141 14.1536V13.3974H10.2652L11.222 15.0598L12.1511 13.4088H25.9755C26.6028 13.4088 27.1662 13.5017 27.5829 13.7934V13.4186H31.3824V13.7934C32.0352 13.5164 32.841 13.4186 33.7637 13.4186H39.3046L39.8149 14.1781V13.4186H43.8929L44.4329 14.1764V13.4169H48.3834V19.8516H44.3734L43.608 18.8737V19.8271H38.6051L38.0608 18.8003H36.8212L36.2471 19.8011H33.6681C32.6475 19.8011 31.8821 19.6316 31.3718 19.4099V19.8011H25.2271V18.3603C25.2271 18.1647 25.1633 18.1647 25.0039 18.1402H24.7806V19.8288H12.8995V19.0464L12.453 19.8288H9.97179L9.5423 19.0464V19.8043H4.75201L4.20771 18.7873H2.97665L2.43235 19.8043H0V39.1164H50.5733V27.5314C49.9993 27.7515 49.27 27.8248 48.5046 27.8248H44.8411V27.4092C44.3946 27.6781 43.6292 27.8248 42.8978 27.8248H31.2761V26.3579C31.2761 26.1624 31.2378 26.1624 31.021 26.1624H30.8615V27.8281H27.0344V26.0906C26.4008 26.3123 25.6672 26.3351 25.0613 26.3123H24.6063V27.8036H19.9712L18.8231 26.798L17.6112 27.7759H10.0823V21.3706H17.7579L18.8592 22.3518L20.0371 21.3739H25.1655C25.7608 21.3739 26.7388 21.4228 27.1683 21.7406V21.3494H31.797C32.2265 21.3494 33.1663 21.4228 33.717 21.7161V21.325H40.6589V21.7161C41.0055 21.4488 41.739 21.325 42.3663 21.325H46.3848V21.7161C46.7972 21.4717 47.3713 21.325 48.1707 21.325H50.6711V0H0ZM44.9815 24.3744L45.0049 24.4005C45.0261 24.4168 45.0538 24.4168 45.0708 24.4331L44.9815 24.3744ZM50.6626 21.3217H50.8008V22.2263H50.6626V21.3217ZM50.7413 24.4967V24.4885C50.6775 24.4478 50.6435 24.4103 50.5818 24.3744C50.2629 24.1251 49.7526 24.024 48.9574 24.0077L48.192 23.9881C47.9985 23.9942 47.805 23.9777 47.6179 23.9392C47.5227 23.9175 47.4396 23.8721 47.3818 23.8101C47.324 23.7481 47.2949 23.6731 47.299 23.597C47.299 23.4492 47.3628 23.3384 47.4904 23.2645C47.652 23.1911 47.8093 23.183 48.0644 23.183H50.6648V22.2246H47.9369C46.4698 22.2246 45.8957 22.9369 45.8957 23.5937C45.8957 25.0606 47.5542 24.9872 48.8936 25.0117C49.1148 25.0117 49.2764 25.0361 49.3699 25.1095C49.4677 25.1584 49.5315 25.2822 49.5315 25.4029C49.5315 25.5169 49.4592 25.6278 49.3401 25.6962C49.2445 25.7875 49.051 25.8103 48.7661 25.8103H46.0276V26.7964H48.7639C49.6569 26.7964 50.3246 26.6041 50.6775 26.2096H50.7413C50.9327 25.9912 51.0283 25.7207 51.0283 25.3572C51.0283 24.9661 50.9327 24.7216 50.7413 24.4999V24.4967ZM39.5406 23.1569V22.2067H34.7886V26.8241H39.5406V25.8706H36.2025V24.9416H39.4619V23.9898H36.2046V23.1585M28.7247 14.3215H30.1811V18.9063H28.7268L28.7247 14.3215ZM27.9082 15.5537L27.8934 15.5634C27.8934 15.0517 27.617 14.7485 27.1705 14.5464C26.7091 14.3427 26.1712 14.3264 25.4483 14.3264H22.1761V18.9226H23.6091V17.2373H25.14C25.6502 17.2373 25.9692 17.2862 26.1754 17.4329C26.4348 17.6545 26.4029 18.049 26.4029 18.326V18.903H27.8423V18.0017C27.8423 17.5942 27.8083 17.3905 27.6085 17.1607C27.4218 16.9878 27.1802 16.8548 26.9068 16.7744C27.2725 16.6603 27.9104 16.2855 27.9104 15.552L27.9082 15.5537ZM26.0904 16.1991H26.0585C25.8671 16.2871 25.6439 16.2904 25.3568 16.2904H23.6006V15.275H25.3547C25.6098 15.275 25.865 15.2815 26.0563 15.3565C26.2477 15.4216 26.3753 15.5651 26.3753 15.7639C26.3753 15.9628 26.2753 16.1225 26.0904 16.1975V16.1991ZM33.8488 15.2766H35.1925V14.2987H33.8233C32.8367 14.2987 32.1138 14.4698 31.6546 14.8365C31.0465 15.3255 30.8849 15.9611 30.8849 16.6457C30.8849 17.4801 31.1464 18.0033 31.6503 18.3961C32.1436 18.784 33.0217 18.9014 33.7127 18.9014H35.3711L35.9133 17.8795H38.8687L39.4258 18.9014H42.3174V15.4624L45.0219 18.9014H47.0417L47.046 18.9046V14.3199H45.5917V17.5193L43.0828 14.3248H40.9141V18.5803L38.5051 14.2514H36.3704L34.3655 17.8697H33.7276C33.3513 17.8697 32.9579 17.8208 32.7325 17.6513C32.4668 17.4068 32.3371 17.0645 32.3371 16.5723C32.3371 16.1078 32.5072 15.7411 32.7496 15.5455C33.0323 15.3255 33.3279 15.2766 33.8467 15.2766H33.8488ZM37.3953 15.1006L38.3818 16.9227V16.926H36.4045L37.3953 15.1006ZM5.06031 17.8795L5.60036 18.903H8.50472V15.3092L10.5714 18.903H11.8131L13.8818 15.3141L13.9137 18.903H15.3808V14.3231H13.008L11.2921 17.4264L9.42961 14.3215H7.10782V18.6618L4.68823 14.3215H2.56843L0.0212618 18.9014H1.55211L2.10492 17.8811L5.06031 17.8795ZM3.5975 15.1006L4.57554 16.9227L4.56916 16.926H2.62371L3.59537 15.1006H3.5975ZM25.208 22.1986H20.6537L18.8465 23.7029L17.0924 22.2002H11.3666V26.7964H17.0094L18.8273 25.2774L20.5793 26.7931H23.3476V25.2611H25.1293C26.405 25.2611 27.617 24.9938 27.617 23.7208L27.6042 23.716C27.6042 22.4447 26.3327 22.2002 25.2059 22.2002L25.208 22.1986ZM16.3078 25.838L16.278 25.8348H12.7996V24.9269H15.9251V23.9914H12.7996V23.1602H16.3716L17.9301 24.4967L16.3057 25.8397L16.3078 25.838ZM21.9252 26.3759L19.7352 24.5064L21.9252 22.7006V26.3726V26.3759ZM25.2271 24.3255H23.3455V23.1569H25.2271C25.7374 23.1569 26.1201 23.3166 26.1201 23.7176C26.1201 24.1136 25.8012 24.3239 25.2271 24.3239V24.3255ZM21.1916 15.2766V14.3215H16.4354V18.9063H21.1916V17.961H17.8599V17.0417H21.1066V16.1029H17.8599V15.2766" fill="black"/>
</g>
<defs>
<clipPath id="clip0_30_42">
<rect width="51.0283" height="39.1164" fill="white"/>
</clipPath>
</defs>
</svg>
